<?xml version="1.0" encoding="utf-8"?>
<svg width="209px" height="144px" viewBox="0 0 209 144" version="1.1" xmlns:xlink="http://www.w3.org/1999/xlink" xmlns="http://www.w3.org/2000/svg">
  <desc>Created with Lunacy</desc>
  <defs>
    <rect width="208.180969" height="143.883911" id="artboard_1" />
    <clipPath id="clip_1">
      <use xlink:href="#artboard_1" clip-rule="evenodd" />
    </clipPath>
  </defs>
  <g id="Logo" clip-path="url(#clip_1)">
    <use xlink:href="#artboard_1" stroke="none" fill="transparent" />
    <g id="Recurso-5" transform="translate(6.103516E-05 0)">
      <path d="M0 0L208.077 0L208.077 103.884L0 103.884L0 0Z" transform="translate(0.102356 0)" id="Background" fill="none" stroke="none" />
      <g id="Capa_2" transform="translate(0 0.0007943362)">
        <g id="Capa_1-2">
          <path d="M6.27124 57.6145C6.31093 57.8663 6.45961 58.0879 6.67764 58.22C6.88582 58.3492 7.14114 58.3776 7.37259 58.2973L14.2489 55.7938L15.1145 58.1794C15.2646 58.6131 15.7359 58.8451 16.1711 58.6996L52.8325 45.3534C53.0408 45.2781 53.2093 45.1209 53.2991 44.9184C53.3888 44.7159 53.392 44.4855 53.3079 44.2805L38.2427 2.90903C38.1753 2.69831 38.025 2.52415 37.8264 2.42675C37.6277 2.32936 37.398 2.31713 37.1901 2.3929L33.3375 3.79498C32.1467 1.09648 30.1675 -0.460029 28.5745 0.121123C26.9814 0.702275 26.4774 3.15287 27.2902 5.9936L25.6972 6.57475C24.478 3.87626 22.5313 2.31975 20.9382 2.91715C19.3451 3.51456 18.8412 5.9489 19.6499 8.78963L18.0609 9.3464C16.8417 6.6479 14.891 5.09139 13.2979 5.6888C11.7048 6.28621 11.2009 8.72054 12.0137 11.5613L10.4206 12.1424C9.20139 9.44393 7.25473 7.88742 5.66164 8.48483C4.06856 9.08224 3.56462 11.5166 4.37742 14.3573L0.524751 15.7594C0.493485 15.7759 0.463588 15.795 0.435343 15.8163C0.385598 15.8422 0.33803 15.8721 0.293104 15.9057C0.259829 15.939 0.228614 15.9743 0.199633 16.0114C0.163596 16.051 0.132233 16.0946 0.106161 16.1414C0.0802927 16.1768 0.0584801 16.2149 0.0411343 16.2552C0.0208572 16.3072 0.00852738 16.362 0.00455863 16.4178C-0.00151929 16.4663 -0.00151929 16.5155 0.00455825 16.5641C0.0025324 16.5938 0.0025324 16.6237 0.00455863 16.6535L6.27124 57.6145ZM31.8013 4.35176L28.8224 5.43685C28.2778 3.40485 28.6029 1.91336 29.1556 1.71016C29.7083 1.50696 30.9275 2.43762 31.8013 4.35176ZM4.76348 25.005L39.8967 12.2156L36.9872 4.26227L33.8985 5.38393C34.7113 8.22467 34.2074 10.6793 32.6143 11.2564C32.1755 11.417 31.6897 11.1914 31.5291 10.7526C31.3686 10.3139 31.5941 9.82803 32.0329 9.66748C32.5856 9.46834 32.9107 7.97279 32.3661 5.94079L26.2702 8.1638C27.0789 11.0045 26.575 13.4592 24.9819 14.0403C24.5532 14.1617 24.1036 13.9312 23.9519 13.5124C23.8002 13.0935 23.9979 12.6286 24.4048 12.4472C24.9534 12.2481 25.2826 10.7526 24.738 8.72056L18.642 10.9436C19.4508 13.7884 18.9509 16.239 17.3578 16.8201C16.9271 16.9489 16.4706 16.7198 16.3165 16.2974C16.1624 15.8751 16.3641 15.4058 16.7767 15.227C17.3294 15.0279 17.6545 13.5323 17.1099 11.5003L11.0139 13.7233C11.8267 16.5681 11.3065 19.0187 9.71342 19.5999C9.28477 19.7212 8.83521 19.4908 8.68348 19.0719C8.53175 18.653 8.72942 18.1881 9.13634 18.0068C9.68904 17.8077 10.0142 16.3121 9.46959 14.2801L1.86584 17.068L4.76348 25.005ZM21.1739 8.21658L24.161 7.13149C23.2832 5.22954 22.0599 4.28669 21.5072 4.48989C20.9545 4.69309 20.6294 6.18458 21.1739 8.21658ZM16.5247 9.91128L13.5458 10.9964C13.0012 8.96436 13.3263 7.47288 13.879 7.26968C14.4317 7.06648 15.6428 8.00932 16.5247 9.91128ZM5.90946 13.7762L8.88837 12.6911C8.00648 10.7891 6.78728 9.84629 6.23864 10.0495C5.69 10.2527 5.36082 11.7442 5.90946 13.7762ZM5.32428 26.594L40.4779 13.8168L51.4791 44.0489L16.3458 56.8302L5.32428 26.594ZM2.83319 24.5255L7.70999 56.3628L13.6353 54.1926L2.83319 24.5255Z" transform="translate(6.563599 0)" id="Shape" fill="#141C3E" fill-rule="evenodd" stroke="none" />
          <path d="M1.22028 5.40957L0.0579779 2.22747C-0.0235024 2.02345 -0.0189353 1.79515 0.0706376 1.59456C0.160214 1.39398 0.327168 1.23819 0.533465 1.1627L3.5896 0.0491566C3.79744 -0.0266092 4.02719 -0.0143836 4.22582 0.0830119C4.42445 0.180411 4.5748 0.354567 4.64217 0.565286L5.80041 3.7474C5.88451 3.95235 5.88131 4.18274 5.79155 4.38528C5.70179 4.58782 5.53325 4.74494 5.32492 4.82029L2.27692 5.92976C2.06804 6.00668 1.83676 5.99457 1.63705 5.89625C1.43735 5.79794 1.28671 5.62202 1.22028 5.40957ZM3.40267 1.91453L1.87461 2.46723L2.4395 4.06032L3.98382 3.50355L3.40267 1.91453Z" transform="translate(35.86444 30.94205)" id="Shape" fill="#000000" fill-rule="evenodd" stroke="none" />
          <path d="M1.2207 5.41706L0.0624612 2.23089C-0.0222343 2.02751 -0.0207398 1.79845 0.0665974 1.5962C0.153938 1.39394 0.319642 1.23579 0.525756 1.15799L3.57782 0.048518C3.78793 -0.0265038 4.01935 -0.0141232 4.22025 0.082891C4.42115 0.179905 4.57475 0.353445 4.64664 0.564644L5.80488 3.74676C5.88898 3.95171 5.88578 4.18211 5.79602 4.38464C5.70626 4.58718 5.53772 4.7443 5.3294 4.81965L2.27327 5.93319C2.06543 6.00895 1.83568 5.99673 1.63705 5.89933C1.43842 5.80194 1.28807 5.62778 1.2207 5.41706ZM3.40704 1.91797L1.87897 2.47068L2.46013 4.07596L3.98412 3.507L3.40704 1.91797Z" transform="translate(28.22357 33.71848)" id="Shape" fill="#000000" fill-rule="evenodd" stroke="none" />
          <path d="M1.21961 5.41363L0.0613761 2.23152C-0.0229195 2.0271 -0.0202871 1.79715 0.0686655 1.59471C0.157618 1.39226 0.325211 1.2348 0.532801 1.15863L3.58893 0.0491566C3.79677 -0.0266092 4.02652 -0.0143836 4.22515 0.0830119C4.42378 0.180411 4.57413 0.354567 4.6415 0.565286L5.79974 3.7474C5.88403 3.95182 5.8814 4.18177 5.79245 4.38421C5.7035 4.58666 5.5359 4.74412 5.32831 4.82029L2.27219 5.93383C2.0638 6.00943 1.83358 5.99665 1.63485 5.89843C1.43612 5.80022 1.28613 5.6251 1.21961 5.41363ZM3.40598 1.91453L1.87792 2.47129L2.455 4.06032L3.98307 3.50355L3.40598 1.91453Z" transform="translate(43.5014 28.15829)" id="Shape" fill="#000000" fill-rule="evenodd" stroke="none" />
          <path d="M1.21657 5.39993L0.0583282 2.23001C-0.0248636 2.02241 -0.0188454 1.78971 0.0749753 1.58669C0.168793 1.38368 0.342119 1.22829 0.554137 1.15712L3.6062 0.0435818C3.81045 -0.0261379 4.03403 -0.0117667 4.22767 0.0835266C4.42131 0.17882 4.5691 0.347213 4.63846 0.551582L5.7967 3.73369C5.88099 3.93812 5.87836 4.16807 5.78941 4.37051C5.70046 4.57295 5.53286 4.73042 5.32527 4.80659L2.26915 5.92012C2.06076 5.99573 1.83054 5.98295 1.63181 5.88473C1.43308 5.78652 1.28308 5.61139 1.21657 5.39993ZM3.40294 1.91301L1.87487 2.46978L2.45196 4.06286L3.98002 3.50609L3.40294 1.91301Z" transform="translate(38.7616 38.89685)" id="Shape" fill="#000000" fill-rule="evenodd" stroke="none" />
          <path d="M1.21908 5.41728L0.0608458 2.23517C-0.0232544 2.03022 -0.0200546 1.79982 0.0697073 1.59728C0.159466 1.39475 0.328008 1.23763 0.536333 1.16227L3.59246 0.0487381C3.80084 -0.0268697 4.03106 -0.014086 4.22979 0.0841281C4.42853 0.182345 4.57852 0.357466 4.64503 0.568929L5.80327 3.75104C5.88737 3.95599 5.88417 4.18639 5.79441 4.38893C5.70465 4.59146 5.53611 4.74858 5.32778 4.82394L2.27572 5.93747C1.84046 6.08301 1.36917 5.85099 1.21908 5.41728ZM3.40549 1.91817L1.88149 2.47494L2.45858 4.06803L3.98664 3.51126L3.40549 1.91817Z" transform="translate(31.11896 41.65518)" id="Shape" fill="#000000" fill-rule="evenodd" stroke="none" />
          <path d="M1.21622 5.41L0.0579779 2.22789C-0.0235024 2.02388 -0.0189353 1.79558 0.0706406 1.59499C0.160213 1.3944 0.327171 1.23862 0.533468 1.16312L3.58959 0.0495845C3.7969 -0.0263457 4.02618 -0.0146813 4.22471 0.0819019C4.42325 0.178482 4.57395 0.351671 4.64217 0.561646L5.80041 3.74376C5.88451 3.94871 5.88131 4.17911 5.79154 4.38164C5.70178 4.58418 5.53324 4.7413 5.32492 4.81665L2.26879 5.92613C2.06095 6.00189 1.8312 5.98967 1.63257 5.89227C1.43393 5.79487 1.28359 5.62072 1.21622 5.41ZM3.40267 1.91089L1.87461 2.46766L2.47202 4.06075L3.98382 3.50397L3.40267 1.91089Z" transform="translate(46.39825 36.11923)" id="Shape" fill="#000000" fill-rule="evenodd" stroke="none" />
          <path d="M1.21755 5.4177L0.059308 2.23559C-0.0242342 2.02906 -0.0193383 1.79728 0.0728544 1.59446C0.165047 1.39164 0.336454 1.23555 0.546993 1.1627L3.60312 0.0491598C3.81096 -0.0266092 4.04071 -0.0143836 4.23934 0.083015C4.43797 0.180414 4.58832 0.354569 4.65569 0.565288L5.81393 3.7474C5.89954 3.95229 5.8976 4.18328 5.80856 4.38671C5.71951 4.59013 5.55112 4.74826 5.3425 4.82436L2.27012 5.93383C2.06228 6.0096 1.83253 5.99737 1.6339 5.89998C1.43526 5.80258 1.28492 5.62842 1.21755 5.4177ZM3.40399 1.91864L1.87593 2.4754L2.45302 4.06443L3.98108 3.50766L3.40399 1.91864Z" transform="translate(32.96136 22.98071)" id="Shape" fill="#000000" fill-rule="evenodd" stroke="none" />
          <path d="M1.21908 5.4177L0.0608459 2.23559C-0.0232544 2.03064 -0.0200546 1.80024 0.0697058 1.59771C0.159466 1.39517 0.328009 1.23805 0.536334 1.1627L3.59246 0.0491598C3.80031 -0.0266092 4.03006 -0.0143836 4.22869 0.083015C4.42732 0.180414 4.57767 0.354569 4.64504 0.565288L5.80327 3.75146C5.96896 4.18015 5.7562 4.66204 5.32779 4.82842L2.27572 5.93789C1.84031 6.08583 1.36737 5.853 1.21908 5.4177ZM3.40545 1.91863L1.87739 2.4754L2.45854 4.0563L3.9866 3.49953L3.40545 1.91863Z" transform="translate(25.32764 25.7605)" id="Shape" fill="#000000" fill-rule="evenodd" stroke="none" />
          <path d="M1.21448 5.4177L0.0562446 2.23559C-0.109441 1.8069 0.103318 1.32501 0.531733 1.15863L3.58786 0.0491598C3.7957 -0.0266092 4.02545 -0.0143836 4.22408 0.0830119C4.42272 0.180411 4.57306 0.354567 4.64043 0.565283L5.79867 3.7352C5.88677 3.94153 5.88566 4.1751 5.79561 4.38059C5.70557 4.58607 5.53459 4.7452 5.32318 4.82029L2.27112 5.93382C1.83687 6.08213 1.36445 5.85137 1.21448 5.4177ZM3.40099 1.91863L1.87699 2.47134L2.45408 4.06443L3.98214 3.50766L3.40099 1.91863Z" transform="translate(20.58954 36.49756)" id="Shape" fill="#000000" fill-rule="evenodd" stroke="none" />
          <path d="M1.21705 5.41197L0.058815 2.22986C-0.024552 2.0228 -0.0190918 1.79056 0.0739117 1.58764C0.166917 1.38472 0.339278 1.22898 0.550558 1.15696L3.60262 0.0434299C4.03788 -0.102112 4.50917 0.129911 4.65926 0.563621L5.80124 3.74979C5.88534 3.95474 5.88214 4.18514 5.79238 4.38768C5.70262 4.59021 5.53408 4.74734 5.32575 4.82269L2.26963 5.93622C2.06071 6.01168 1.83001 5.99833 1.63117 5.8993C1.43234 5.80027 1.2827 5.62418 1.21705 5.41197ZM3.40346 1.91287L1.8754 2.46964L2.45655 4.05461L3.98461 3.49784L3.40346 1.91287Z" transform="translate(23.48456 44.45657)" id="Shape" fill="#000000" fill-rule="evenodd" stroke="none" />
          <path d="M1.21909 5.41348L0.0608474 2.23137C-0.0232544 2.02642 -0.0200546 1.79602 0.0697058 1.59348C0.159466 1.39095 0.328008 1.23382 0.536334 1.15847L3.5884 0.0449399C4.02265 -0.103373 4.49507 0.127387 4.64504 0.561063L5.80327 3.74317C5.96896 4.17186 5.75621 4.65375 5.32779 4.82013L2.27166 5.92961C2.06382 6.00537 1.83406 5.99315 1.63543 5.89575C1.4368 5.79835 1.28645 5.6242 1.21909 5.41348ZM3.40545 1.93472L1.87739 2.47117L2.45854 4.08051L3.98253 3.52781L3.40545 1.93472Z" transform="translate(17.69135 28.54446)" id="Shape" fill="#000000" fill-rule="evenodd" stroke="none" />
          <path d="M1.21227 5.4177L0.0540246 2.25185C-0.108393 1.82095 0.10768 1.33977 0.537641 1.17489L3.58564 0.0491598C3.79348 -0.0266092 4.02323 -0.0143836 4.22186 0.083015C4.4205 0.180414 4.57084 0.354569 4.63821 0.565288L5.79645 3.7474C5.88055 3.95235 5.87735 4.18275 5.78759 4.38528C5.69783 4.58782 5.52929 4.74494 5.32096 4.82029L2.26484 5.93383C2.057 6.0096 1.82725 5.99737 1.62862 5.89997C1.42998 5.80257 1.27964 5.62842 1.21227 5.4177ZM3.38244 1.93485L1.87063 2.49162L2.43553 4.08065L3.96359 3.52388L3.38244 1.93485Z" transform="translate(40.61102 20.18469)" id="Shape" fill="#000000" fill-rule="evenodd" stroke="none" />
          <path d="M194.41 30.7233L191.923 30.7233C183.658 21.551 171.92 16.2732 159.574 16.1782C137.38 -4.42757 103.377 -5.46909 79.9639 13.7398C79.8623 13.8472 79.7476 13.9414 79.6225 14.0202L79.5982 14.0202C79.4972 14.0787 79.3911 14.1277 79.2812 14.1665C79.0627 14.5541 78.7055 14.8445 78.2814 14.9793C78.1548 15.1406 78.0008 15.2782 77.8263 15.3857C77.6111 15.6754 77.3582 15.935 77.0744 16.1579C76.946 16.3069 76.7935 16.4332 76.6233 16.5318L76.5664 16.6334C76.4402 16.8376 76.2744 17.0144 76.0787 17.1536C75.9253 17.3249 75.7387 17.4631 75.5301 17.56C75.1626 17.954 74.6421 18.1691 74.1037 18.1493C73.7783 18.155 73.4564 18.0825 73.1649 17.9379C72.4683 17.9278 71.838 17.5228 71.5393 16.8935C56.5609 14.1964 41.2517 19.426 31.0537 30.7233L25.7705 30.7233C24.0812 30.7244 22.7123 32.0942 22.7124 33.7836C22.7124 35.4729 24.0814 36.8426 25.7707 36.8437L194.427 36.8437C198.651 36.8437 202.075 40.268 202.075 44.4921C202.075 48.7162 198.651 52.1406 194.427 52.1406L13.8711 52.1406C9.647 52.1406 6.22268 48.7162 6.22268 44.4921C6.22268 40.268 9.647 36.8437 13.8711 36.8437L13.5338 36.8437C15.1359 36.7605 16.401 35.4527 16.431 33.8487C16.4609 32.2447 15.2455 30.8906 13.6476 30.7477C6.04741 30.8126 -0.0618491 37.025 0.000472609 44.6252C0.0627959 52.2255 6.27311 58.3369 13.8733 58.2772L26.8781 58.2772L31.8015 68.2218C35.4591 75.5979 46.0783 80.556 58.2703 80.556L134.783 80.556C135.877 80.5568 136.888 79.9737 137.435 79.0266C137.982 78.0795 137.982 76.9124 137.435 75.9652C136.888 75.0181 135.877 74.435 134.783 74.4356L58.2662 74.4356C48.6589 74.4356 39.836 70.6846 37.2838 65.4949L33.6953 58.2244L174.586 58.2244L170.997 65.4949C168.445 70.6683 159.618 74.4356 150.015 74.4356L147.02 74.4356C145.926 74.4349 144.915 75.018 144.368 75.9651C143.821 76.9122 143.821 78.0793 144.368 79.0264C144.915 79.9736 145.926 80.5567 147.02 80.556L150.015 80.556C162.207 80.556 172.842 75.5979 176.484 68.2218L181.413 58.2406L194.418 58.2406C202.02 58.2373 208.181 52.0739 208.181 44.4721C208.181 36.8702 202.021 30.7066 194.419 30.703L194.41 30.7233ZM157.351 30.7232C137.339 4.64861 98.5486 5.52644 79.3909 30.7232L72.7787 30.7232C94.3464 -2.05292 142.342 -2.122 163.938 30.7232L157.351 30.7232ZM96.2565 30.4672C109.62 21.0785 127.462 21.1813 140.717 30.7233L149.251 30.7233C132.861 13.9308 105.652 12.4922 87.4783 30.7233L95.8948 30.7233L96.2565 30.4672ZM50.0895 30.7232C55.4633 28.2206 61.4196 27.2368 67.3127 27.8785C68.4181 26.1743 70.8646 22.957 70.8646 22.957C65.6766 21.9682 65.1205 22.27 62.818 23.5195C60.2599 24.9077 55.5461 27.4657 39.9295 30.7232L50.0895 30.7232ZM170.559 29.7479C171.351 30.0446 172.135 30.3697 172.899 30.7232L183.047 30.7232C178.057 26.6831 172.122 23.9784 165.799 22.8634C167.543 25.0458 169.133 27.3461 170.559 29.7479ZM109.907 30.7233C115.354 29.2674 121.085 29.2548 126.537 30.6867L126.671 30.7233L109.907 30.7233Z" transform="translate(0 23.32712)" id="Shape" fill="#171530" fill-rule="evenodd" stroke="none" />
          <path d="M3.28777 1.13386C2.55181 1.16724 1.86709 0.757692 1.54838 0.0934733L0 0L2.032 2.032L3.6576 1.08102C3.53596 1.10861 3.41228 1.12628 3.28777 1.13386L3.28777 1.13386Z" transform="translate(70.8158 40.31812)" id="Shape" fill="#000000" stroke="none" />
          <path d="M3.86081 0L3.01549 0.499873C2.8045 0.898652 2.45237 1.20441 2.02794 1.35738C1.80561 1.74496 1.44595 2.03501 1.02007 2.17018C0.893427 2.32158 0.742324 2.45071 0.573025 2.55219C0.495653 2.66866 0.404198 2.77513 0.300738 2.86918C0.216235 2.99714 0.1151 3.1133 0 3.21462L5.75463 0.138174L3.86081 0Z" transform="translate(77.25317 36.11594)" id="Shape" fill="#000000" stroke="none" />
          <path d="M0 0L0.365938 0L1.08475 0L0 0Z" transform="translate(13.53381 54.05042)" id="Shape" fill="#000000" stroke="none" />
          <path d="M3.94208 0.987551C3.70338 0.926838 3.48034 0.816008 3.28778 0.662427L2.69443 0.36576L0 0L4.32003 2.80416L6.35203 1.58496L4.32003 1.17856L3.94208 0.987551Z" transform="translate(70.15344 39.95239)" id="Shape" fill="#000000" stroke="none" />
          <path d="M3.44219 0.77216C3.27866 0.933611 3.08546 1.06195 2.87324 1.15011L2.30428 1.53213C2.15121 1.77313 1.94383 1.97494 1.69874 2.12141C1.54213 2.38638 1.3195 2.60621 1.05257 2.75945C0.945124 2.93755 0.80762 3.09567 0.646173 3.22681L0 5.0231L4.60043 0L3.44219 0.77216Z" transform="translate(75.56262 37.06693)" id="Shape" fill="#000000" stroke="none" />
        </g>
      </g>
    </g>
    <g id="RCP-&amp;-PLAN" fill="#222438" transform="translate(0 103.8839)">
      <path d="M156.359 15.943L156.359 27.5938L154.391 28.4844L154.074 28.2969Q154.531 19.5898 154.531 14.9258Q154.531 14.1406 154.414 13.6836Q154.32 13.4141 154.057 13.1855Q153.793 12.957 153.383 12.793Q152.973 12.6289 152.715 12.5469Q152.457 12.4648 152.059 12.3594L152.059 11.832L152.246 11.6328L157.027 11.6328Q161.207 16.7988 167.398 23.3449L167.398 11.9492L169.344 11.3047L169.824 11.6328Q169.145 19.1914 169.145 24.5Q169.145 26.5859 169.273 28.2969L167.469 28.2969L156.359 15.943ZM156.168 15.7299L156.066 15.6172Q155.961 15.4766 155.855 15.4766Q155.798 15.4766 155.789 15.4973Q155.782 15.5147 155.809 15.5469Q155.881 15.628 156.168 15.7299ZM65.5625 16.4375L67.8242 14.375Q66.7813 12.7578 65.2344 12.0547Q63.6875 11.3516 61.3672 11.3516Q59.3984 11.3516 57.582 12.0195Q55.7656 12.6875 54.3828 13.9414Q51.8633 16.2266 51.8633 20.4688Q51.8633 21.793 52.1387 22.9766Q52.4141 24.1602 53.0703 25.25Q53.7266 26.3398 54.7168 27.125Q55.707 27.9102 57.2305 28.3789Q58.7539 28.8477 60.6641 28.8477Q64.2383 28.8477 67.625 26.4688L67.1211 25.8711Q64.0273 27.3828 61.6484 27.3828Q60.3477 27.3828 59.2695 26.9141Q58.1914 26.4453 57.4883 25.6836Q56.7852 24.9219 56.2988 23.9141Q55.8125 22.9063 55.6016 21.8691Q55.3906 20.832 55.3906 19.7773Q55.3906 18.9922 55.502 18.1953Q55.6133 17.3984 55.8535 16.5547Q56.0938 15.7109 56.5156 14.9844Q56.9375 14.2578 57.5059 13.6777Q58.0742 13.0977 58.9004 12.7637Q59.7266 12.4297 60.7109 12.4297Q61.6719 12.4297 62.4453 12.7461Q63.2188 13.0625 63.7402 13.6309Q64.2617 14.1992 64.6074 14.873Q64.9531 15.5469 65.1758 16.3672L65.5625 16.4375ZM136.625 28.1797L135.097 28.31L135.031 28.5313Q132.875 28.4141 123.816 28.4141L123.816 28.0039Q123.863 27.9453 124.045 27.7637Q124.227 27.582 124.332 27.4531Q124.438 27.3242 124.473 27.2188Q124.543 26.9258 124.543 25.5547L124.543 14.8555Q124.543 14.0117 124.426 13.3203Q124.215 12.418 122.434 12.3125L122.434 11.7617L122.621 11.5625L129.699 11.5625L129.898 11.7617L129.898 12.4063Q129.441 12.4531 129.131 12.5Q128.82 12.5469 128.557 12.6465Q128.293 12.7461 128.135 12.8281Q127.977 12.9102 127.854 13.1094Q127.73 13.3086 127.678 13.4668Q127.625 13.625 127.59 13.9648Q127.555 14.3047 127.549 14.5742Q127.543 14.8438 127.543 15.3594L127.543 22.3438Q127.543 22.6602 127.531 23.2227Q127.52 23.7852 127.52 24.1719Q127.52 24.5586 127.525 25.0566Q127.531 25.5547 127.572 25.8887Q127.613 26.2227 127.684 26.5273Q127.754 26.832 127.883 26.9844Q128.012 27.1367 128.188 27.1367Q130.312 27.1367 134.564 26.6808Q139.071 19.8127 142.438 13.3438Q142.461 13.3203 142.461 13.2266Q142.461 13.1211 142.391 13.1211L140.129 12.8398L140.129 11.9258L145.508 11.9258L148.168 20.8789Q148.391 21.6172 148.549 22.127Q148.707 22.6367 148.988 23.4336Q149.27 24.2305 149.539 24.7695Q149.809 25.3086 150.143 25.8418Q150.477 26.375 150.857 26.6504Q151.238 26.9258 151.625 26.9258Q152.105 26.9258 153.02 26.7383L153.195 27.4063Q152.152 27.875 151.689 28.0684Q151.227 28.2617 150.359 28.5078Q149.492 28.7539 148.848 28.7539Q148.332 28.7539 147.928 28.543Q147.523 28.332 147.254 27.9512Q146.984 27.5703 146.82 27.2012Q146.656 26.832 146.516 26.3516L145.297 21.9805L139.273 21.9805Q138.477 23.4688 136.625 28.1797ZM41.4219 27.4297L41.1641 20.6094Q41.4219 20.6094 41.4688 20.6563L47.4453 28.6016L47.9492 28.6484L50.7617 27.4297L50.6914 27.043Q50.3633 26.7383 49.8828 26.2461Q48.6523 24.9336 44.668 20.2578L44.7617 19.9883Q45.582 19.7773 46.0684 19.6191Q46.5547 19.4609 47.1934 19.1445Q47.832 18.8281 48.2891 18.4063Q49.5078 17.3164 49.5078 15.1719Q49.5078 11.5859 43.8008 11.5859L36.1016 11.5859L35.9727 11.7148L35.9727 12.3359Q36.3828 12.3594 36.6523 12.3945Q36.9219 12.4297 37.3027 12.5352Q37.6836 12.6406 37.9004 12.8691Q38.1172 13.0977 38.1641 13.4375Q38.2344 13.9648 38.2344 17.2344Q38.2344 22.8125 37.918 28.3906L38.1406 28.6016L41.4219 27.4297ZM72.3359 27.6992L69.2773 28.5547L68.9961 28.3203Q69.1836 24.1602 69.1836 17.3984Q69.1836 14.1992 69.0898 13.4609Q69.0195 13.1563 68.8145 12.9453Q68.6094 12.7344 68.2695 12.6172Q67.9297 12.5 67.6777 12.4531Q67.4258 12.4063 67.0273 12.3594L67.0273 11.832L67.2148 11.6328L75.5 11.6328Q80.6563 11.6328 80.6563 15.4531Q80.6563 17.9609 79.0742 19.4141Q77.6328 20.7617 74.2461 21.043Q74.0352 21.0664 73.7773 21.0488Q73.5195 21.0313 73.2383 21.043Q72.957 21.0547 72.7285 21.0957Q72.5 21.1367 72.3535 21.2773Q72.207 21.418 72.207 21.6406Q72.207 22.1563 72.3359 27.6992ZM113.844 27.6992L110.785 28.5547L110.504 28.3203Q110.691 24.1602 110.691 17.3984Q110.691 14.1992 110.598 13.4609Q110.527 13.1563 110.322 12.9453Q110.117 12.7344 109.777 12.6172Q109.438 12.5 109.186 12.4531Q108.934 12.4063 108.535 12.3594L108.535 11.832L108.723 11.6328L117.008 11.6328Q122.164 11.6328 122.164 15.4531Q122.164 17.9609 120.582 19.4141Q119.141 20.7617 115.754 21.043Q115.543 21.0664 115.285 21.0488Q115.027 21.0313 114.746 21.043Q114.465 21.0547 114.236 21.0957Q114.008 21.1367 113.861 21.2773Q113.715 21.418 113.715 21.6406Q113.715 22.1563 113.844 27.6992ZM94.5195 18.7227L94.4961 19.8945Q94.9766 19.8477 95.9375 19.8477Q97.2852 19.8477 98.0469 20.5625Q98.8086 21.2773 98.8086 22.3672Q98.8086 24.207 97.7539 25.2266Q96.2188 23.9023 95.1934 22.6309Q94.168 21.3594 92.1641 18.4766Q92.6797 18.2305 92.9434 18.1016Q93.207 17.9727 93.6875 17.7266Q94.168 17.4805 94.4316 17.3105Q94.6953 17.1406 95.0879 16.877Q95.4805 16.6133 95.7031 16.3965Q95.9258 16.1797 96.1895 15.8809Q96.4531 15.582 96.5938 15.2949Q96.7344 15.0078 96.8281 14.6621Q96.9219 14.3164 96.9219 13.9414Q96.9219 13.2031 96.4941 12.6816Q96.0664 12.1602 95.416 11.9258Q94.7656 11.6914 93.9922 11.6914Q92.7969 11.6914 91.707 12.0254Q90.6172 12.3594 89.832 13.0273Q88.5898 14.0938 88.5898 16.2266Q88.5898 17.4336 89.2578 18.957Q87.125 20.1523 86.1406 21.3125Q85.1563 22.4727 85.1563 23.9961Q85.1563 25.3438 85.9883 26.4512Q86.8203 27.5586 88.1621 28.1563Q89.5039 28.7539 91.0391 28.7539Q93.2773 28.7539 96.0547 27.5234Q97.7188 28.8008 99.7227 28.8008Q100.531 28.8008 101.223 28.502Q101.914 28.2031 102.389 27.7461Q102.863 27.2891 103.262 26.6387Q103.66 25.9883 103.889 25.4023Q104.117 24.8164 104.305 24.1367L103.707 23.9961Q103.508 24.4883 103.402 24.7227Q103.297 24.957 103.033 25.4082Q102.77 25.8594 102.535 26.0938Q102.301 26.3281 101.932 26.5215Q101.563 26.7148 101.141 26.7148Q99.9922 26.7148 98.4102 25.7305Q99.4531 24.8281 100.021 23.5742Q100.59 22.3203 100.59 20.9961Q100.59 20.5742 100.449 19.8945Q102.5 19.8945 104.141 19.9883L104.211 18.6172Q99.8398 18.793 97.25 18.793Q95.8906 18.793 94.5195 18.7227ZM72.207 19.7539Q72.207 19.9648 72.4004 20.0996Q72.5938 20.2344 72.8633 20.2344Q74.8789 20.2344 76.0625 18.9805Q77.2461 17.7266 77.2461 15.8867Q77.2461 14.4336 76.3555 13.4551Q75.4648 12.4766 73.8945 12.4766Q73.8359 12.4766 73.502 12.4648Q73.168 12.4531 73.0098 12.4648Q72.8516 12.4766 72.6113 12.5234Q72.3711 12.5703 72.2656 12.6992Q72.1602 12.8281 72.1602 13.0273Q72.1602 15.3008 72.207 19.7539ZM113.715 19.7539Q113.715 19.9648 113.908 20.0996Q114.102 20.2344 114.371 20.2344Q116.387 20.2344 117.57 18.9805Q118.754 17.7266 118.754 15.8867Q118.754 14.4336 117.863 13.4551Q116.973 12.4766 115.402 12.4766Q115.344 12.4766 115.01 12.4648Q114.676 12.4531 114.518 12.4648Q114.359 12.4766 114.119 12.5234Q113.879 12.5703 113.773 12.6992Q113.668 12.8281 113.668 13.0273Q113.668 15.3008 113.715 19.7539ZM43.291 19.3262Q42.125 19.625 41.1641 19.625Q41.1641 18.5938 41.1816 17.0176Q41.1992 15.4414 41.2227 14.2813Q41.2461 13.1211 41.2578 13.0742Q41.2695 12.9688 41.2988 12.8867Q41.3281 12.8047 41.3926 12.752Q41.457 12.6992 41.5098 12.6582Q41.5625 12.6172 41.6563 12.5879Q41.75 12.5586 41.8145 12.5469Q41.8789 12.5352 41.9961 12.5293Q42.1133 12.5234 42.166 12.5234L42.5 12.5234Q44.1172 12.5234 45.1133 13.2852Q46.1094 14.0469 46.1094 15.5469Q46.1094 17.3281 44.9492 18.5234Q44.457 19.0273 43.291 19.3262ZM93.6348 16.2676Q93.0664 17.0938 91.8008 17.7383Q90.8164 16.2148 90.8164 14.5859Q90.8164 14.0703 90.9863 13.6191Q91.1563 13.168 91.5957 12.8457Q92.0352 12.5234 92.668 12.5234Q93.3008 12.5234 93.752 13.1035Q94.2031 13.6836 94.2031 14.3047Q94.2031 15.4414 93.6348 16.2676ZM144.547 20.7383Q144.605 20.7383 144.688 20.6973Q144.77 20.6563 144.77 20.6094Q144.77 20.3516 144.746 20.3047L143.188 15.3828Q143.129 15.1953 142.965 15.1953Q142.871 15.1953 142.754 15.3828L140.234 20.375Q140.188 20.4453 140.188 20.5859Q140.188 20.6328 140.281 20.6855Q140.375 20.7383 140.445 20.7383L144.547 20.7383ZM89.6445 19.707Q92.2813 23.9258 95.375 26.8789Q94.8242 27.1367 94.1445 27.3184Q93.4648 27.5 92.9609 27.5Q91.9297 27.5 90.9922 27.084Q90.0547 26.668 89.3984 26Q88.7422 25.332 88.3555 24.4707Q87.9688 23.6094 87.9688 22.7305Q87.9688 22.2266 88.0332 21.834Q88.0977 21.4414 88.2734 21.0371Q88.4492 20.6328 88.7891 20.2988Q89.1289 19.9648 89.6445 19.707Z" />
    </g>
  </g>
</svg>