<?xml version="1.0" encoding="utf-8"?>
<svg width="209px" height="133px" viewBox="0 0 209 133" version="1.1" xmlns:xlink="http://www.w3.org/1999/xlink" xmlns="http://www.w3.org/2000/svg">
  <desc>Created with Lunacy</desc>
  <g id="Logo-Blanc" clip-path="url(#clip_1)">
    <use xlink:href="#artboard_1" stroke="none" fill="#FFFFFF" />
    <g id="Logo">
      <g id="Logo">
        <g id="Recurso-5">
          <g id="Capa_2">
            <g id="Capa_1-2">
              <path d="M6.27124 57.6145C6.31093 57.8663 6.45961 58.0879 6.67764 58.22C6.88582 58.3492 7.14114 58.3776 7.37259 58.2973L14.2489 55.7938L15.1145 58.1794C15.2646 58.6131 15.7359 58.8451 16.1711 58.6996L52.8325 45.3534C53.0408 45.2781 53.2093 45.1209 53.2991 44.9184C53.3888 44.7159 53.392 44.4855 53.3079 44.2805L38.2427 2.90903C38.1753 2.69831 38.025 2.52415 37.8264 2.42675C37.6277 2.32936 37.398 2.31713 37.1901 2.3929L33.3375 3.79498C32.1467 1.09648 30.1675 -0.460029 28.5745 0.121123C26.9814 0.702275 26.4774 3.15287 27.2902 5.9936L25.6972 6.57475C24.478 3.87626 22.5313 2.31975 20.9382 2.91715C19.3451 3.51456 18.8412 5.9489 19.6499 8.78963L18.0609 9.3464C16.8417 6.6479 14.891 5.09139 13.2979 5.6888C11.7048 6.28621 11.2009 8.72054 12.0137 11.5613L10.4206 12.1424C9.20139 9.44393 7.25473 7.88742 5.66164 8.48483C4.06856 9.08224 3.56462 11.5166 4.37742 14.3573L0.524751 15.7594C0.493485 15.7759 0.463588 15.795 0.435343 15.8163C0.385598 15.8422 0.33803 15.8721 0.293104 15.9057C0.259829 15.939 0.228614 15.9743 0.199633 16.0114C0.163596 16.051 0.132233 16.0946 0.106161 16.1414C0.0802926 16.1768 0.05848 16.2149 0.0411342 16.2552C0.0208571 16.3072 0.00852724 16.362 0.00455849 16.4178C-0.00151943 16.4663 -0.00151943 16.5155 0.00455811 16.5641C0.00253226 16.5938 0.00253226 16.6237 0.00455849 16.6535L6.27124 57.6145ZM28.8225 5.43685L31.8014 4.35176C30.9276 2.43762 29.7084 1.50696 29.1557 1.71016C28.603 1.91336 28.2779 3.40485 28.8225 5.43685ZM4.76336 25.0051L39.8966 12.2157L36.9871 4.26233L33.8984 5.38399C34.7112 8.22473 34.2073 10.6794 32.6142 11.2565C32.1754 11.4171 31.6896 11.1915 31.529 10.7527C31.3685 10.314 31.594 9.82809 32.0328 9.66754C32.5855 9.4684 32.9106 7.97285 32.366 5.94085L26.2701 8.16386C27.0788 11.0046 26.5749 13.4593 24.9818 14.0404C24.5531 14.1618 24.1035 13.9313 23.9518 13.5125C23.8001 13.0936 23.9978 12.6287 24.4047 12.4473C24.9533 12.2482 25.2825 10.7527 24.7379 8.72062L18.6419 10.9437C19.4507 13.7885 18.9508 16.2391 17.3577 16.8202C16.927 16.949 16.4705 16.7199 16.3164 16.2975C16.1623 15.8752 16.364 15.4059 16.7766 15.2271C17.3293 15.028 17.6544 13.5324 17.1098 11.5004L11.0138 13.7234C11.8266 16.5682 11.3064 19.0188 9.7133 19.6C9.28465 19.7213 8.83509 19.4909 8.68336 19.072C8.53163 18.6531 8.7293 18.1882 9.13622 18.0069C9.68892 17.8078 10.0141 16.3122 9.46947 14.2802L1.86572 17.0681L4.76336 25.0051ZM24.1611 7.13152L21.174 8.21661C20.6295 6.18461 20.9546 4.69312 21.5073 4.48992C22.06 4.28672 23.2833 5.22957 24.1611 7.13152ZM16.5248 9.91131L13.5459 10.9964C13.0013 8.96439 13.3264 7.47291 13.8791 7.26971C14.4318 7.06651 15.6429 8.00935 16.5248 9.91131ZM8.88831 12.6911L5.9094 13.7762C5.36076 11.7442 5.68994 10.2527 6.23858 10.0495C6.78722 9.84628 8.00642 10.7891 8.88831 12.6911ZM5.32422 26.594L40.4778 13.8168L51.479 44.0489L16.3457 56.8302L5.32422 26.594ZM7.71005 56.3628L2.83325 24.5255L13.6354 54.1926L7.71005 56.3628Z" transform="translate(6.563721 0)" id="Shape" fill="#FFFFFF" fill-rule="evenodd" stroke="none" />
              <path d="M0.0579777 2.22747L1.22028 5.40957C1.28671 5.62202 1.43735 5.79794 1.63705 5.89625C1.83676 5.99457 2.06804 6.00668 2.27692 5.92976L5.32492 4.82029C5.53325 4.74494 5.70179 4.58782 5.79155 4.38528C5.88131 4.18274 5.88451 3.95235 5.80041 3.7474L4.64217 0.565286C4.5748 0.354567 4.42445 0.180411 4.22582 0.083012C4.02719 -0.0143836 3.79744 -0.0266091 3.5896 0.0491566L0.533465 1.1627C0.327168 1.23819 0.160214 1.39398 0.0706374 1.59456C-0.0189355 1.79515 -0.0235026 2.02345 0.0579777 2.22747ZM1.87451 2.46725L3.40257 1.91455L3.98372 3.50357L2.4394 4.06034L1.87451 2.46725Z" transform="translate(35.8645 30.94202)" id="Shape" fill="#FFFFFF" fill-rule="evenodd" stroke="none" />
              <path d="M0.0624614 2.23089L1.2207 5.41706C1.28807 5.62778 1.43842 5.80194 1.63705 5.89933C1.83568 5.99673 2.06543 6.00895 2.27327 5.93319L5.3294 4.81965C5.53772 4.7443 5.70626 4.58718 5.79602 4.38464C5.88578 4.18211 5.88898 3.95171 5.80488 3.74676L4.64664 0.564643C4.57475 0.353444 4.42115 0.179904 4.22025 0.0828903C4.01935 -0.0141239 3.78793 -0.0265045 3.57782 0.0485173L0.525756 1.15799C0.319642 1.23579 0.153938 1.39394 0.0665976 1.5962C-0.0207396 1.79845 -0.0222341 2.02751 0.0624614 2.23089ZM1.87891 2.47068L3.40698 1.91797L3.98406 3.507L2.46007 4.07596L1.87891 2.47068Z" transform="translate(28.22363 33.71851)" id="Shape" fill="#FFFFFF" fill-rule="evenodd" stroke="none" />
              <path d="M0.0613766 2.23152L1.21961 5.41363C1.28613 5.6251 1.43612 5.80022 1.63485 5.89843C1.83358 5.99665 2.0638 6.00943 2.27219 5.93383L5.32831 4.82029C5.5359 4.74412 5.7035 4.58666 5.79245 4.38421C5.8814 4.18177 5.88403 3.95182 5.79974 3.7474L4.6415 0.565286C4.57413 0.354567 4.42378 0.180411 4.22515 0.083012C4.02652 -0.0143835 3.79677 -0.0266091 3.58893 0.0491566L0.532802 1.15863C0.325212 1.2348 0.157619 1.39226 0.068666 1.59471C-0.0202866 1.79715 -0.022919 2.0271 0.0613766 2.23152ZM1.87793 2.47131L3.40599 1.91455L3.98308 3.50357L2.45501 4.06034L1.87793 2.47131Z" transform="translate(43.50146 28.15833)" id="Shape" fill="#FFFFFF" fill-rule="evenodd" stroke="none" />
              <path d="M0.0583282 2.23001L1.21657 5.39993C1.28308 5.61139 1.43308 5.78652 1.63181 5.88473C1.83054 5.98295 2.06076 5.99573 2.26915 5.92012L5.32527 4.80659C5.53286 4.73042 5.70046 4.57295 5.78941 4.37051C5.87836 4.16807 5.88099 3.93812 5.7967 3.73369L4.63846 0.551582C4.5691 0.347213 4.42131 0.17882 4.22767 0.0835266C4.03403 -0.0117667 3.81045 -0.0261379 3.6062 0.0435818L0.554137 1.15712C0.342119 1.22829 0.168793 1.38368 0.0749753 1.58669C-0.0188454 1.78971 -0.0248636 2.02241 0.0583282 2.23001ZM1.87476 2.46973L3.40283 1.91296L3.97991 3.50604L2.45185 4.06281L1.87476 2.46973Z" transform="translate(38.76172 38.89685)" id="Shape" fill="#FFFFFF" fill-rule="evenodd" stroke="none" />
              <path d="M0.060846 2.23517L1.21908 5.41728C1.36917 5.85099 1.84046 6.08301 2.27572 5.93747L5.32778 4.82394C5.53611 4.74858 5.70465 4.59146 5.79441 4.38893C5.88417 4.18639 5.88737 3.95599 5.80327 3.75104L4.64503 0.56893C4.57852 0.357467 4.42853 0.182346 4.22979 0.0841289C4.03106 -0.0140852 3.80084 -0.0268689 3.59246 0.0487389L0.536333 1.16227C0.328008 1.23763 0.159466 1.39475 0.0697075 1.59728C-0.0200544 1.79982 -0.0232542 2.03022 0.060846 2.23517ZM1.88159 2.47498L3.40559 1.91821L3.98674 3.5113L2.45868 4.06807L1.88159 2.47498Z" transform="translate(31.1189 41.65515)" id="Shape" fill="#FFFFFF" fill-rule="evenodd" stroke="none" />
              <path d="M0.0579774 2.22789L1.21622 5.41C1.28359 5.62072 1.43393 5.79487 1.63257 5.89227C1.8312 5.98967 2.06095 6.00189 2.26879 5.92613L5.32492 4.81665C5.53324 4.7413 5.70178 4.58418 5.79154 4.38164C5.88131 4.17911 5.88451 3.94871 5.80041 3.74376L4.64217 0.561646C4.57395 0.351671 4.42325 0.178482 4.22471 0.0819018C4.02618 -0.0146814 3.7969 -0.0263458 3.58959 0.0495844L0.533468 1.16312C0.327171 1.23862 0.160213 1.3944 0.0706401 1.59499C-0.0189358 1.79558 -0.0235029 2.02388 0.0579774 2.22789ZM1.87451 2.46766L3.40257 1.91089L3.98372 3.50397L2.47192 4.06075L1.87451 2.46766Z" transform="translate(46.39819 36.11926)" id="Shape" fill="#FFFFFF" fill-rule="evenodd" stroke="none" />
              <path d="M0.0593088 2.23559L1.21755 5.4177C1.28492 5.62842 1.43526 5.80258 1.6339 5.89998C1.83253 5.99737 2.06228 6.0096 2.27012 5.93383L5.3425 4.82436C5.55112 4.74826 5.71951 4.59013 5.80856 4.38671C5.8976 4.18328 5.89954 3.95229 5.81393 3.7474L4.65569 0.565287C4.58832 0.354568 4.43797 0.180413 4.23934 0.0830142C4.04071 -0.0143844 3.81096 -0.02661 3.60312 0.049159L0.546994 1.1627C0.336455 1.23555 0.165048 1.39164 0.0728552 1.59446C-0.0193375 1.79728 -0.0242334 2.02906 0.0593088 2.23559ZM1.87598 2.47534L3.40404 1.91858L3.98113 3.5076L2.45307 4.06437L1.87598 2.47534Z" transform="translate(32.96143 22.98071)" id="Shape" fill="#FFFFFF" fill-rule="evenodd" stroke="none" />
              <path d="M0.0608462 2.23559L1.21908 5.4177C1.36737 5.853 1.84031 6.08583 2.27572 5.93789L5.32779 4.82842C5.7562 4.66204 5.96896 4.18015 5.80327 3.75146L4.64504 0.565287C4.57767 0.354568 4.42732 0.180413 4.22869 0.0830142C4.03006 -0.0143844 3.80031 -0.02661 3.59246 0.049159L0.536334 1.1627C0.328009 1.23805 0.159466 1.39517 0.0697061 1.59771C-0.0200543 1.80024 -0.0232541 2.03064 0.0608462 2.23559ZM1.87744 2.47535L3.4055 1.91858L3.98665 3.49948L2.45859 4.05625L1.87744 2.47535Z" transform="translate(25.32764 25.7605)" id="Shape" fill="#FFFFFF" fill-rule="evenodd" stroke="none" />
              <path d="M0.0562447 2.23559L1.21448 5.4177C1.36445 5.85137 1.83687 6.08213 2.27112 5.93382L5.32318 4.82029C5.53459 4.7452 5.70557 4.58607 5.79561 4.38059C5.88566 4.1751 5.88677 3.94153 5.79867 3.7352L4.64043 0.565282C4.57306 0.354566 4.42272 0.18041 4.22408 0.0830114C4.02545 -0.0143841 3.7957 -0.0266097 3.58786 0.0491593L0.531733 1.15863C0.103318 1.32501 -0.109441 1.8069 0.0562447 2.23559ZM1.87695 2.47129L3.40095 1.91858L3.9821 3.50761L2.45404 4.06438L1.87695 2.47129Z" transform="translate(20.5896 36.49756)" id="Shape" fill="#FFFFFF" fill-rule="evenodd" stroke="none" />
              <path d="M0.0588152 2.22986L1.21705 5.41197C1.2827 5.62418 1.43234 5.80027 1.63117 5.8993C1.83001 5.99833 2.06071 6.01168 2.26963 5.93622L5.32575 4.82269C5.53408 4.74734 5.70262 4.59021 5.79238 4.38768C5.88214 4.18514 5.88534 3.95474 5.80124 3.74979L4.65926 0.563621C4.50917 0.129911 4.03788 -0.102112 3.60262 0.0434296L0.550558 1.15696C0.339278 1.22898 0.166917 1.38472 0.0739119 1.58764C-0.0190916 1.79056 -0.0245518 2.0228 0.0588152 2.22986ZM1.87549 2.46961L3.40355 1.91284L3.9847 3.49781L2.45664 4.05458L1.87549 2.46961Z" transform="translate(23.48462 44.45654)" id="Shape" fill="#FFFFFF" fill-rule="evenodd" stroke="none" />
              <path d="M0.0608475 2.23137L1.21909 5.41348C1.28645 5.6242 1.4368 5.79835 1.63543 5.89575C1.83406 5.99315 2.06382 6.00537 2.27166 5.92961L5.32779 4.82013C5.75621 4.65375 5.96896 4.17186 5.80327 3.74317L4.64504 0.561062C4.49507 0.127386 4.02265 -0.103374 3.5884 0.0449386L0.536334 1.15847C0.328008 1.23382 0.159466 1.39095 0.0697059 1.59348C-0.0200545 1.79602 -0.0232543 2.02642 0.0608475 2.23137ZM1.87744 2.47114L3.4055 1.93469L3.98258 3.52778L2.45859 4.08048L1.87744 2.47114Z" transform="translate(17.69141 28.54443)" id="Shape" fill="#FFFFFF" fill-rule="evenodd" stroke="none" />
              <path d="M0.0540239 2.25185L1.21227 5.4177C1.27964 5.62842 1.42998 5.80257 1.62862 5.89997C1.82725 5.99737 2.057 6.0096 2.26484 5.93383L5.32096 4.82029C5.52929 4.74494 5.69783 4.58782 5.78759 4.38528C5.87735 4.18275 5.88055 3.95235 5.79645 3.7474L4.63821 0.565287C4.57084 0.354568 4.4205 0.180413 4.22186 0.0830142C4.02323 -0.0143844 3.79348 -0.02661 3.58564 0.049159L0.53764 1.17489C0.107679 1.33977 -0.108394 1.82095 0.0540239 2.25185ZM1.87061 2.49158L3.38242 1.93481L3.96357 3.52384L2.43551 4.08061L1.87061 2.49158Z" transform="translate(40.61108 20.18469)" id="Shape" fill="#FFFFFF" fill-rule="evenodd" stroke="none" />
              <path d="M194.41 30.7233L191.923 30.7233C183.658 21.551 171.92 16.2732 159.574 16.1782C137.38 -4.42757 103.377 -5.46909 79.9639 13.7398C79.8623 13.8472 79.7476 13.9414 79.6225 14.0202L79.5982 14.0202C79.4972 14.0787 79.3911 14.1277 79.2812 14.1665C79.0627 14.5541 78.7055 14.8445 78.2814 14.9793C78.1548 15.1406 78.0008 15.2782 77.8263 15.3857C77.6111 15.6754 77.3582 15.935 77.0744 16.1579C76.946 16.3069 76.7935 16.4332 76.6233 16.5318L76.5664 16.6334C76.4402 16.8376 76.2744 17.0144 76.0787 17.1536C75.9253 17.3249 75.7387 17.4631 75.5301 17.56C75.1626 17.954 74.6421 18.1691 74.1037 18.1493C73.7783 18.155 73.4564 18.0825 73.1649 17.9379C72.4683 17.9278 71.838 17.5228 71.5393 16.8935C56.5609 14.1964 41.2517 19.426 31.0537 30.7233L25.7705 30.7233C24.0812 30.7244 22.7123 32.0942 22.7124 33.7836C22.7124 35.4729 24.0814 36.8426 25.7707 36.8437L194.427 36.8437C198.651 36.8437 202.075 40.268 202.075 44.4921C202.075 48.7162 198.651 52.1406 194.427 52.1406L13.8711 52.1406C9.647 52.1406 6.22268 48.7162 6.22268 44.4921C6.22268 40.268 9.647 36.8437 13.8711 36.8437L13.5338 36.8437C15.1359 36.7605 16.401 35.4527 16.431 33.8487C16.4609 32.2447 15.2455 30.8906 13.6476 30.7477C6.04741 30.8126 -0.0618491 37.025 0.000472606 44.6252C0.0627959 52.2255 6.27311 58.3369 13.8733 58.2772L26.8781 58.2772L31.8015 68.2218C35.4591 75.5979 46.0783 80.556 58.2703 80.556L134.783 80.556C135.877 80.5568 136.888 79.9737 137.435 79.0266C137.982 78.0795 137.982 76.9124 137.435 75.9652C136.888 75.0181 135.877 74.435 134.783 74.4356L58.2662 74.4356C48.6589 74.4356 39.836 70.6846 37.2838 65.4949L33.6953 58.2244L174.586 58.2244L170.997 65.4949C168.445 70.6683 159.618 74.4356 150.015 74.4356L147.02 74.4356C145.926 74.4349 144.915 75.018 144.368 75.9651C143.821 76.9122 143.821 78.0793 144.368 79.0264C144.915 79.9736 145.926 80.5567 147.02 80.556L150.015 80.556C162.207 80.556 172.842 75.5979 176.484 68.2218L181.413 58.2406L194.418 58.2406C202.02 58.2373 208.181 52.0739 208.181 44.4721C208.181 36.8702 202.021 30.7066 194.419 30.703L194.41 30.7233ZM79.391 30.7232C98.5487 5.52648 137.339 4.64865 157.351 30.7232L163.938 30.7232C142.342 -2.12196 94.3465 -2.05288 72.7788 30.7232L79.391 30.7232ZM96.2565 30.4671C109.62 21.0784 127.462 21.1812 140.717 30.7232L149.251 30.7232C132.861 13.9307 105.652 12.4921 87.4783 30.7232L95.8948 30.7232L96.2565 30.4671ZM67.3126 27.8785C61.4195 27.2368 55.4632 28.2206 50.0894 30.7232L39.9294 30.7232C55.546 27.4657 60.2598 24.9077 62.8179 23.5195C65.1205 22.27 65.6766 21.9682 70.8645 22.957C70.8645 22.957 68.418 26.1743 67.3126 27.8785ZM170.559 29.7479C171.351 30.0446 172.135 30.3697 172.899 30.7232L183.047 30.7232C178.057 26.6831 172.122 23.9784 165.799 22.8634C167.543 25.0458 169.133 27.3461 170.559 29.7479ZM126.537 30.6867C121.085 29.2548 115.354 29.2674 109.907 30.7233L126.671 30.7233L126.537 30.6867Z" transform="translate(0 23.32715)" id="Shape" fill="#FFFFFF" fill-rule="evenodd" stroke="none" />
              <path d="M3.28777 1.13386C2.55181 1.16724 1.86709 0.757693 1.54838 0.0934734L0 0L2.032 2.032L3.6576 1.08102C3.53596 1.10861 3.41228 1.12628 3.28777 1.13386L3.28777 1.13386L3.28777 1.13386Z" transform="translate(70.81592 40.31812)" id="Shape" fill="#FFFFFF" stroke="none" />
              <path d="M3.86081 0L3.01549 0.499873C2.8045 0.898652 2.45237 1.20441 2.02794 1.35738C1.80561 1.74496 1.44595 2.03501 1.02007 2.17018C0.893427 2.32158 0.742324 2.45071 0.573025 2.55219C0.495653 2.66866 0.404198 2.77513 0.300738 2.86918C0.216235 2.99714 0.1151 3.1133 0 3.21462L5.75463 0.138174L3.86081 0L3.86081 0Z" transform="translate(77.25317 36.11597)" id="Shape" fill="#FFFFFF" stroke="none" />
              <path d="M0 0L0.365938 0L1.08475 0L0 0L0 0Z" transform="translate(13.53369 54.05042)" id="Shape" fill="#FFFFFF" stroke="none" />
              <path d="M3.94208 0.987551C3.70338 0.926838 3.48034 0.816008 3.28778 0.662427L2.69443 0.36576L0 0L4.32003 2.80416L6.35203 1.58496L4.32003 1.17856L3.94208 0.987551L3.94208 0.987551Z" transform="translate(70.15332 39.95239)" id="Shape" fill="#FFFFFF" stroke="none" />
              <path d="M3.44219 0.77216C3.27866 0.933611 3.08546 1.06195 2.87324 1.15011L2.30428 1.53213C2.15121 1.77313 1.94383 1.97494 1.69874 2.12141C1.54213 2.38638 1.3195 2.60621 1.05257 2.75945C0.945125 2.93755 0.807621 3.09567 0.646173 3.22681L0 5.0231L4.60043 0L3.44219 0.77216L3.44219 0.77216Z" transform="translate(75.5625 37.06689)" id="Shape" fill="#FFFFFF" stroke="none" />
            </g>
          </g>
        </g>
        <g id="RCP-&amp;-PLAN" transform="translate(35.97266 115.1877)">
          <path d="M120.386 4.92046L120.386 16.2891L118.418 17.1797L118.101 16.9922C118.406 11.1875 118.558 6.73043 118.558 3.6211Q118.558 2.8359 118.441 2.3789C118.379 2.19923 118.26 2.0332 118.084 1.8808C117.908 1.72847 117.684 1.59763 117.41 1.4883C117.137 1.3789 116.914 1.29687 116.742 1.2422C116.57 1.18747 116.352 1.12497 116.086 1.0547L116.086 0.5273L116.273 0.3281L121.054 0.3281Q125.234 5.4941 131.425 12.0402L131.425 0.6445L133.371 0L133.851 0.3281Q133.172 7.8867 133.172 13.1953Q133.172 15.2812 133.3 16.9922L131.496 16.9922L120.711 4.9989L120.547 4.72695C120.363 4.3569 120.178 4.17188 119.992 4.17188C119.892 4.17188 119.835 4.19911 119.819 4.2536C119.806 4.29939 119.824 4.36467 119.871 4.44941C119.957 4.59389 120.128 4.7509 120.386 4.92046ZM120.386 4.92046C120.51 5.0014 120.652 5.08521 120.815 5.17188L120.711 4.9989L120.386 4.6383L120.386 4.92046ZM29.5898 5.13278L31.8515 3.07028C31.1563 1.99214 30.293 1.21871 29.2617 0.749975Q27.7148 0.0468745 25.3945 0.046875C24.082 0.046875 22.8203 0.269508 21.6093 0.714775C20.3984 1.16011 19.332 1.80074 18.4101 2.63667Q15.8906 4.92188 15.8906 9.16408C15.8906 10.0469 15.9824 10.8828 16.166 11.6719C16.3496 12.4609 16.6602 13.2187 17.0976 13.9453C17.5352 14.6718 18.084 15.2968 18.7441 15.8203C19.4043 16.3437 20.2422 16.7617 21.2578 17.0742C22.2734 17.3867 23.418 17.543 24.6914 17.543C27.0742 17.543 29.3945 16.75 31.6523 15.1641L31.1484 14.5664C29.0859 15.5742 27.2617 16.0781 25.6757 16.0781C24.8086 16.0781 24.0156 15.9218 23.2968 15.6094C22.5781 15.2968 21.9844 14.8867 21.5156 14.3789C21.0469 13.8711 20.6504 13.2812 20.3261 12.6094C20.0019 11.9375 19.7695 11.2558 19.6289 10.5644C19.4883 9.87298 19.4179 9.17571 19.4179 8.47258C19.4179 7.94918 19.4551 7.42184 19.5293 6.89057C19.6035 6.35931 19.7207 5.81244 19.8808 5.24998Q20.1211 4.40618 20.5429 3.67968Q20.9648 2.95308 21.5332 2.37298C21.9121 1.98631 22.3769 1.68164 22.9277 1.45897Q23.7539 1.12497 24.7382 1.12498C25.3789 1.12498 25.957 1.23044 26.4726 1.44138Q27.2461 1.75777 27.7675 2.32618C28.1152 2.70504 28.4043 3.11907 28.6347 3.56828C28.8652 4.01754 29.0547 4.51561 29.2031 5.06248L29.5898 5.13278ZM99.1244 17.0053L100.652 16.875C101.887 13.7344 102.77 11.668 103.3 10.6758L109.324 10.6758L110.543 15.0469C110.637 15.3672 110.738 15.6504 110.847 15.8965C110.957 16.1426 111.101 16.3926 111.281 16.6465C111.461 16.9004 111.685 17.0976 111.955 17.2383Q112.359 17.4492 112.875 17.4492Q113.519 17.4492 114.386 17.2031C114.965 17.039 115.408 16.8926 115.716 16.7637C116.025 16.6348 116.527 16.4141 117.222 16.1016L117.047 15.4336C116.437 15.5586 115.972 15.6211 115.652 15.6211C115.394 15.6211 115.138 15.5293 114.884 15.3457C114.631 15.1621 114.393 14.8926 114.17 14.5371C113.948 14.1816 113.746 13.8242 113.566 13.4648C113.387 13.1055 113.203 12.6602 113.015 12.1289C112.828 11.5976 112.682 11.1621 112.576 10.8223C112.471 10.4824 112.344 10.0664 112.195 9.57421L109.535 0.621113L104.156 0.621113L104.156 1.53511L106.418 1.81641Q106.488 1.81641 106.488 1.92191C106.488 1.98438 106.481 2.02345 106.465 2.03911C104.221 6.35171 101.596 10.7974 98.5914 15.3761C95.7568 15.68 93.6314 15.832 92.2154 15.832C92.0981 15.832 91.9964 15.7812 91.9104 15.6797C91.8244 15.5781 91.7581 15.4257 91.7114 15.2226C91.6641 15.0195 91.6268 14.8067 91.5994 14.584C91.5721 14.3613 91.5564 14.084 91.5524 13.7519C91.5491 13.4199 91.5474 13.125 91.5474 12.8672C91.5474 12.6094 91.5511 12.293 91.5584 11.918C91.5664 11.543 91.5704 11.25 91.5704 11.0391L91.5704 4.05471C91.5704 3.71098 91.5724 3.44925 91.5764 3.26951C91.5804 3.08985 91.5941 2.88671 91.6174 2.66011C91.6408 2.43358 91.6701 2.26758 91.7054 2.16211C91.7401 2.05665 91.7988 1.93751 91.8814 1.80471C91.9634 1.67191 92.0571 1.57815 92.1624 1.52341Q92.3204 1.44141 92.5844 1.34181C92.7598 1.27541 92.9511 1.22658 93.1584 1.19531C93.3651 1.16405 93.6208 1.13281 93.9254 1.10161L93.9254 0.457012L93.7264 0.257813L86.6484 0.257813L86.4614 0.457012L86.4614 1.00781Q88.2424 1.11331 88.4534 2.01561C88.5314 2.47655 88.5704 2.98828 88.5704 3.55081L88.5704 14.25C88.5704 15.1641 88.5471 15.7188 88.5004 15.9141C88.4771 15.9844 88.4301 16.0625 88.3594 16.1484C88.2894 16.2343 88.1938 16.3379 88.0724 16.459Q87.8904 16.6406 87.8434 16.6992L87.8434 17.1094Q96.9024 17.1094 99.0584 17.2266L99.1244 17.0053ZM5.4492 16.125L5.1914 9.30475Q5.4492 9.30475 5.4961 9.35165L11.4726 17.297L11.9765 17.3438L14.789 16.125L14.7187 15.7383C14.5 15.5352 14.2304 15.2696 13.9101 14.9415Q12.6796 13.6289 8.6953 8.95315L8.789 8.68365C9.33587 8.54298 9.77143 8.41992 10.0957 8.31445C10.4199 8.20898 10.7949 8.05078 11.2207 7.83985C11.6464 7.62892 12.0117 7.38285 12.3164 7.10165Q13.5351 6.01175 13.5351 3.86725Q13.5351 2.85218 13.0778 2.12444Q11.9197 0.281249 7.8281 0.28125L0.128902 0.28125L0 0.41015L0 1.03125C0.273403 1.04692 0.499935 1.06645 0.679604 1.08985C0.859337 1.11332 1.07614 1.16022 1.33 1.23055C1.58393 1.30082 1.78317 1.41212 1.9277 1.56445C2.07224 1.71685 2.16013 1.90632 2.1914 2.13285Q2.2617 2.66015 2.2617 5.92975C2.2617 9.64848 2.15623 13.3672 1.9453 17.0859L2.1679 17.297L5.4492 16.125ZM33.3047 17.25L36.3633 16.3945C36.2774 12.6993 36.2344 10.6797 36.2344 10.3359C36.2344 10.1875 36.2832 10.0664 36.3809 9.97262C36.4786 9.87889 36.6036 9.81836 36.7559 9.79103C36.9082 9.76369 37.0782 9.74613 37.2657 9.73832C37.4532 9.73053 37.6328 9.73246 37.8047 9.74412C37.9766 9.75586 38.1329 9.75392 38.2735 9.73832Q41.6602 9.45703 43.1016 8.10943Q44.6837 6.65622 44.6837 4.14843Q44.6837 2.79453 44.0361 1.92045Q42.8563 0.328124 39.5274 0.328125L31.2422 0.328125L31.0547 0.527325L31.0547 1.05472C31.3204 1.08599 31.5372 1.11722 31.7051 1.14843C31.8731 1.17969 32.0704 1.23439 32.2969 1.31252C32.5235 1.39066 32.7052 1.50002 32.8419 1.64063C32.9786 1.78129 33.0703 1.95316 33.1172 2.15623C33.1797 2.64843 33.211 3.96092 33.211 6.09372Q33.211 12.8555 33.0235 17.0156L33.3047 17.25ZM77.8713 16.3945L74.8123 17.25L74.5313 17.0156C74.6559 14.2422 74.7183 10.6016 74.7183 6.09372C74.7183 3.96092 74.6873 2.64843 74.6253 2.15623C74.5779 1.95316 74.4859 1.78129 74.3493 1.64063C74.2126 1.50002 74.0309 1.39066 73.8043 1.31252C73.5783 1.23439 73.3813 1.17969 73.2132 1.14843C73.0452 1.11722 72.8283 1.08599 72.5623 1.05472L72.5623 0.527325L72.7503 0.328125L81.0353 0.328125Q86.1913 0.328125 86.1913 4.14843C86.1913 5.82029 85.6639 7.14062 84.6093 8.10943C83.6486 9.00782 82.0393 9.55079 79.7813 9.73832C79.6406 9.75392 79.4843 9.75586 79.3123 9.74412C79.1403 9.73246 78.9606 9.73053 78.7733 9.73832C78.5859 9.74613 78.4159 9.76369 78.2633 9.79103C78.1113 9.81836 77.9863 9.87889 77.8883 9.97262C77.7909 10.0664 77.7422 10.1875 77.7422 10.3359C77.7422 10.6797 77.7852 12.6993 77.8713 16.3945ZM58.5234 8.58982L58.5468 7.41802C59.4609 7.46489 60.371 7.48832 61.2773 7.48832Q63.8671 7.48832 68.2383 7.31252L68.1683 8.68362Q66.5273 8.58982 64.4763 8.58982C64.5703 9.04295 64.6173 9.41015 64.6173 9.69142C64.6173 10.5742 64.4276 11.4336 64.0483 12.2695Q63.4804 13.5234 62.4375 14.4258C63.4922 15.082 64.4024 15.4101 65.1683 15.4101C65.4496 15.4101 65.7133 15.3457 65.9593 15.2168C66.2053 15.0879 66.4063 14.9453 66.5623 14.7891C66.719 14.6329 66.885 14.4043 67.0603 14.1035C67.2363 13.8027 67.3593 13.5742 67.4293 13.418C67.5 13.2618 67.6016 13.0196 67.7343 12.6914L68.3323 12.832C68.207 13.2852 68.0683 13.707 67.9163 14.0976C67.7636 14.4883 67.5546 14.9004 67.2893 15.334C67.0233 15.7676 66.7323 16.1368 66.4163 16.4414C66.0996 16.7461 65.711 16.9981 65.2503 17.1973C64.789 17.3965 64.2889 17.4961 63.75 17.4961C62.4141 17.4961 61.1914 17.0703 60.082 16.2187C58.2304 17.0391 56.5585 17.4492 55.0664 17.4492Q53.5312 17.4492 52.1894 16.8516Q50.8476 16.2539 50.0156 15.1465C49.4609 14.4083 49.1836 13.5899 49.1836 12.6914C49.1836 11.6758 49.5117 10.7813 50.1679 10.0078C50.8242 9.23435 51.8632 8.44919 53.2851 7.65232C52.8398 6.63672 52.6171 5.72659 52.6171 4.92192C52.6171 3.50005 53.0312 2.43362 53.8593 1.72262Q54.6445 1.05472 55.7343 0.720719Q56.8242 0.386719 58.0195 0.386719C58.5351 0.386719 59.0097 0.464852 59.4433 0.621119Q60.0937 0.855519 60.5214 1.37692C60.8066 1.72459 60.9492 2.14452 60.9492 2.63672Q60.9492 3.01172 60.8554 3.35742C60.7929 3.58789 60.7148 3.79882 60.6211 3.99022C60.5273 4.18162 60.3925 4.37695 60.2168 4.57622C60.041 4.77542 59.8789 4.94729 59.7304 5.09182C59.582 5.23635 59.3769 5.39652 59.1152 5.57232Q58.7226 5.83592 58.4589 6.00582C58.2832 6.11915 58.0351 6.25785 57.7148 6.42192C57.3945 6.58599 57.1464 6.71099 56.9707 6.79692C56.7949 6.88285 56.5351 7.00785 56.1914 7.17192Q58.1953 10.0547 59.2207 11.3262C59.9043 12.1738 60.7578 13.0391 61.7812 13.9219C62.4843 13.2422 62.8359 12.2891 62.8359 11.0625C62.8359 10.3359 62.582 9.73435 62.0742 9.25782Q61.3125 8.54302 59.9648 8.54302C59.3242 8.54302 58.8437 8.55862 58.5234 8.58982ZM36.2343 8.44925C36.2343 8.58985 36.2988 8.70508 36.4277 8.79495C36.5566 8.88481 36.7109 8.92975 36.8906 8.92975C38.2343 8.92975 39.3007 8.51178 40.0898 7.67585C40.8789 6.83991 41.2734 5.80865 41.2734 4.58205Q41.2734 3.12895 40.3828 2.15045C39.789 1.49811 38.9687 1.17195 37.9218 1.17195C37.8827 1.17195 37.7519 1.16801 37.5293 1.16015C37.3066 1.15235 37.1426 1.15235 37.0371 1.16015C36.9316 1.16801 36.7988 1.18755 36.6386 1.21875C36.4785 1.25001 36.3632 1.30861 36.2929 1.39455C36.2226 1.48048 36.1875 1.58985 36.1875 1.72265C36.1875 3.23831 36.2031 5.48051 36.2343 8.44925ZM77.9353 8.79495C77.8066 8.70508 77.7423 8.58985 77.7423 8.44925C77.711 5.48051 77.6953 3.23831 77.6953 1.72265C77.6953 1.58985 77.7303 1.48048 77.8003 1.39455C77.871 1.30861 77.9863 1.25001 78.1463 1.21875C78.3063 1.18755 78.4393 1.16801 78.5453 1.16015Q78.7033 1.14845 79.0373 1.16015C79.26 1.16801 79.3906 1.17195 79.4293 1.17195C80.4766 1.17195 81.297 1.49811 81.8903 2.15045C82.4843 2.80278 82.7813 3.61331 82.7813 4.58205C82.7813 5.80865 82.3866 6.83991 81.5973 7.67585C80.8086 8.51178 79.7423 8.92975 78.3983 8.92975Q78.1293 8.92975 77.9353 8.79495ZM7.31831 8.02155C6.54097 8.22075 5.832 8.32035 5.19141 8.32035Q5.19141 7.28915 5.2089 5.71295C5.22064 4.66215 5.23434 3.75005 5.25 2.97665C5.26561 2.20318 5.27731 1.80082 5.28511 1.76955C5.29291 1.69928 5.30657 1.63678 5.32611 1.58205C5.34564 1.52738 5.3769 1.48248 5.41991 1.44735C5.46284 1.41215 5.50191 1.38088 5.53711 1.35355C5.57224 1.32622 5.62107 1.30278 5.68361 1.28325C5.74607 1.26372 5.79881 1.25005 5.8418 1.24225C5.88474 1.23445 5.94527 1.22858 6.02341 1.22465Q6.14061 1.21875 6.19331 1.21875L6.52731 1.21875C7.60544 1.21875 8.47654 1.47268 9.14061 1.98055C9.80467 2.48835 10.1367 3.24225 10.1367 4.24225Q10.1367 6.02345 8.97651 7.21875C8.64837 7.55468 8.09564 7.82228 7.31831 8.02155ZM55.8281 6.43365C56.6719 6.00398 57.2832 5.51375 57.6622 4.96295C58.041 4.41215 58.2305 3.75785 58.2305 3.00005Q58.2305 2.37895 57.7794 1.79885C57.4785 1.41212 57.1172 1.21875 56.6954 1.21875C56.2735 1.21875 55.9161 1.32618 55.6231 1.54105C55.3301 1.75592 55.127 2.01372 55.0136 2.31445Q54.8438 2.76565 54.8438 3.28125Q54.8438 4.91015 55.8281 6.43365ZM108.574 9.43363C108.613 9.43363 108.66 9.41996 108.715 9.39262C108.77 9.36529 108.797 9.33599 108.797 9.30472C108.797 9.13286 108.789 9.03129 108.773 9.00003L107.215 4.07813C107.176 3.95313 107.102 3.89063 106.992 3.89063C106.93 3.89063 106.859 3.95313 106.781 4.07813L104.261 9.07032C104.231 9.11719 104.215 9.18749 104.215 9.28122C104.215 9.31249 104.246 9.34569 104.308 9.38082C104.371 9.41602 104.426 9.43363 104.472 9.43363L108.574 9.43363ZM59.4023 15.5742C57.3398 13.6055 55.4297 11.2149 53.6718 8.40234C53.3281 8.57421 53.0429 8.77148 52.8164 8.99414C52.5898 9.21681 52.4179 9.46291 52.3007 9.73244C52.1836 10.002 52.1035 10.2676 52.0605 10.5293C52.0176 10.7911 51.9961 11.0899 51.9961 11.4258Q51.9961 12.3047 52.3828 13.166C52.6406 13.7402 52.9882 14.25 53.4257 14.6953C53.8632 15.1407 54.3945 15.502 55.0195 15.7793C55.6445 16.0567 56.3007 16.1953 56.9882 16.1953C57.3241 16.1953 57.7187 16.1348 58.1718 16.0137C58.6249 15.8926 59.0351 15.7461 59.4023 15.5742Z" id="Shape" fill="#FFFFFF" fill-rule="evenodd" stroke="none" />
        </g>
      </g>
    </g>
  </g>
</svg>