<?xml version="1.0" standalone="no"?>
<!DOCTYPE svg PUBLIC "-//W3C//DTD SVG 20010904//EN"
 "http://www.w3.org/TR/2001/REC-SVG-20010904/DTD/svg10.dtd">
<svg version="1.0" xmlns="http://www.w3.org/2000/svg"
 width="1024.000000pt" height="1024.000000pt" viewBox="0 0 1024.000000 1024.000000"
 preserveAspectRatio="xMidYMid meet">
<metadata>
Created by potrace 1.11, written by Peter Selinger 2001-2013
</metadata>
<g transform="translate(0.000000,1024.000000) scale(0.100000,-0.100000)"
fill="#000000" stroke="none">
<path d="M1711 7654 c-41 -29 -61 -90 -57 -174 2 -41 6 -82 10 -90 5 -12 -3
-19 -27 -28 -18 -7 -36 -12 -39 -12 -3 0 -18 21 -33 47 -56 95 -140 150 -199
130 -75 -25 -105 -117 -82 -252 7 -39 6 -40 -29 -51 l-36 -11 -35 54 c-53 84
-92 115 -158 127 -39 7 -83 -22 -107 -71 -18 -38 -21 -56 -16 -116 3 -40 8
-79 11 -87 4 -11 -6 -20 -34 -32 l-39 -16 -30 53 c-16 29 -48 68 -71 88 -132
113 -244 0 -207 -209 l7 -41 -78 -28 c-139 -50 -135 -47 -128 -118 4 -34 9
-71 11 -82 3 -11 7 -36 9 -55 8 -54 17 -112 22 -140 2 -14 6 -43 9 -65 3 -22
7 -51 10 -65 7 -35 14 -81 19 -121 12 -88 23 -157 31 -199 3 -14 7 -45 10 -70
3 -25 7 -56 10 -70 2 -14 7 -43 10 -65 3 -23 8 -52 10 -65 3 -14 7 -41 10 -60
2 -19 9 -66 15 -105 6 -38 14 -83 16 -100 6 -45 13 -87 18 -115 2 -14 7 -45
11 -70 3 -25 8 -61 11 -80 2 -19 6 -42 8 -50 1 -8 6 -37 10 -65 4 -27 10 -61
13 -75 2 -14 5 -40 6 -59 2 -29 -2 -34 -23 -37 -47 -7 -164 -46 -212 -70 -54
-27 -151 -103 -188 -147 -14 -16 -33 -39 -43 -51 -23 -26 -102 -190 -112 -231
-4 -16 -9 -84 -12 -150 -6 -166 25 -280 110 -404 33 -48 153 -171 167 -171 5
0 15 -6 22 -13 25 -25 152 -79 223 -94 55 -12 148 -16 431 -17 l361 -1 128
-260 c139 -281 187 -359 280 -448 60 -58 195 -157 213 -157 6 0 12 -3 14 -7 4
-11 175 -93 191 -93 7 0 17 -4 23 -10 5 -5 18 -11 29 -13 11 -2 27 -7 35 -10
24 -9 152 -45 185 -51 17 -3 44 -8 60 -11 17 -3 41 -7 55 -10 14 -3 45 -8 70
-12 25 -4 946 -8 2048 -10 1845 -3 2006 -2 2038 13 54 26 79 69 79 136 0 67
-22 103 -79 132 -36 17 -111 18 -2034 20 -1098 1 -2009 5 -2024 9 -32 8 -68
15 -118 23 -52 8 -152 34 -172 45 -10 5 -23 9 -30 9 -23 0 -201 85 -263 125
-33 21 -87 66 -121 100 -53 53 -75 88 -163 263 -55 110 -101 205 -101 211 0 8
6896 14 6911 6 7 -5 -175 -368 -211 -420 -112 -160 -417 -311 -710 -351 -25
-3 -54 -8 -65 -11 -11 -2 -101 -6 -200 -9 -209 -6 -216 -7 -249 -31 -91 -67
-76 -213 26 -259 32 -14 63 -16 235 -11 200 6 218 8 353 32 116 21 131 25 195
45 118 36 291 110 360 153 149 93 267 207 337 322 36 61 148 286 148 299 0 4
5 12 11 19 6 7 34 59 62 117 l52 105 335 1 c382 1 422 4 525 39 165 56 323
201 399 367 79 174 71 401 -21 587 -42 83 -168 220 -235 256 -21 11 -38 23
-38 27 0 5 -8 8 -18 8 -10 0 -26 6 -37 13 -19 13 -93 38 -125 43 -8 2 -31 5
-50 8 -19 4 -75 6 -125 6 l-89 0 -96 93 c-52 50 -111 106 -130 122 -45 38
-188 145 -194 145 -3 0 -36 19 -73 43 -70 45 -239 129 -328 165 -94 37 -306
99 -370 108 -11 1 -33 5 -50 8 -102 18 -184 27 -277 31 l-77 3 -68 58 c-38 33
-70 62 -73 65 -7 8 -210 159 -214 159 -2 0 -36 22 -77 49 -301 198 -758 372
-1119 425 -172 26 -311 37 -465 38 -503 4 -1045 -138 -1475 -386 -25 -14 -52
-29 -60 -33 -19 -9 -223 -145 -230 -153 -3 -4 -27 -22 -55 -40 -67 -46 -155
-118 -243 -201 -43 -41 -79 -68 -90 -66 -9 2 -35 12 -57 24 -44 23 -78 29
-290 49 -65 7 -322 7 -423 2 -42 -3 -45 -1 -57 32 -7 19 -16 44 -21 55 -4 11
-8 25 -10 30 -1 6 -26 73 -54 150 -29 77 -69 187 -90 245 -21 58 -75 206 -120
330 -45 124 -100 275 -122 335 -22 61 -57 157 -78 215 -21 58 -52 143 -70 190
-17 47 -33 90 -34 95 -2 6 -6 17 -9 25 -4 8 -16 41 -27 72 -13 34 -28 58 -38
60 -9 2 -39 -5 -67 -15 -115 -43 -128 -47 -139 -47 -6 0 -21 18 -33 39 -67
117 -167 170 -232 125z m143 -137 c31 -44 34 -54 22 -63 -25 -18 -125 -48
-133 -40 -12 11 -12 130 -1 144 6 6 7 12 2 12 -5 0 -3 4 5 9 25 16 68 -9 105
-62z m329 -159 c98 -261 108 -297 90 -299 -20 -2 -51 -13 -243 -84 -113 -42
-212 -78 -220 -80 -8 -2 -62 -21 -120 -43 -111 -42 -160 -60 -690 -253 -463
-169 -433 -159 -444 -142 -4 8 -9 20 -11 26 -1 7 -5 21 -10 32 -9 24 -38 104
-67 182 -11 32 -28 73 -36 92 -12 28 -12 35 -1 42 25 16 344 130 354 127 13
-4 18 -24 18 -89 0 -47 -4 -61 -26 -85 -28 -30 -32 -41 -19 -60 23 -35 82 -10
109 46 20 41 26 138 11 182 -7 19 -7 33 -1 39 13 13 241 98 272 101 24 3 28
-4 32 -62 3 -60 -2 -82 -26 -104 -55 -51 -6 -116 51 -68 51 43 64 103 50 222
l-7 56 63 21 c35 12 100 35 145 52 54 20 85 27 89 20 3 -6 8 -39 9 -74 3 -57
0 -66 -26 -95 -33 -36 -33 -35 -19 -61 26 -47 99 0 119 76 10 37 7 139 -4 176
-5 13 23 27 142 72 81 30 151 53 155 50 4 -2 6 -39 5 -83 -2 -69 -5 -82 -23
-95 -47 -32 -24 -91 29 -77 59 15 98 151 72 254 -4 15 -1 29 7 35 16 14 121
51 129 47 4 -2 23 -46 42 -96z m-734 55 c42 -42 65 -79 57 -92 -3 -4 -33 -18
-67 -31 -77 -28 -84 -21 -81 82 1 45 17 78 38 78 9 0 33 -17 53 -37z m-376
-135 c18 -18 40 -47 49 -64 l18 -31 -72 -27 c-39 -14 -73 -24 -75 -22 -2 2 -6
30 -9 62 -11 110 27 145 89 82z m-365 -148 c24 -25 56 -80 50 -84 -2 -2 -33
-14 -71 -29 l-67 -25 -5 21 c-18 78 -7 153 23 159 20 5 37 -5 70 -42z m1665
-290 c25 -69 59 -163 75 -210 17 -47 36 -98 43 -115 7 -16 13 -33 14 -37 2 -5
4 -10 5 -13 1 -3 3 -8 4 -12 1 -7 68 -194 83 -233 3 -8 7 -19 8 -25 2 -5 14
-39 28 -75 14 -36 55 -145 90 -243 62 -171 64 -177 43 -182 -137 -30 -214 -49
-231 -57 -11 -5 -6 3 12 19 l32 28 -29 81 c-42 121 -46 127 -83 121 -54 -8
-151 -47 -169 -67 -15 -19 -14 -26 21 -117 20 -54 42 -98 48 -98 33 0 11 -15
-90 -59 -253 -112 -460 -251 -652 -439 -44 -43 -90 -83 -103 -88 -12 -5 -74
-9 -136 -8 -63 0 -129 -3 -148 -6 -41 -8 -79 -38 -100 -79 l-15 -29 -13 39
c-7 21 -18 53 -25 69 -7 17 -27 71 -44 120 -18 50 -38 106 -46 125 -7 19 -25
69 -40 110 -15 41 -31 84 -35 95 -5 11 -20 52 -34 90 -13 39 -32 93 -42 120
-9 28 -21 59 -25 70 -5 11 -27 72 -50 135 -22 63 -50 140 -62 170 -12 30 -22
57 -23 60 0 3 -4 12 -7 20 -4 8 -20 56 -37 105 -17 50 -35 98 -41 109 -6 10
-7 22 -2 27 4 4 67 28 138 54 72 25 153 54 180 65 79 30 487 177 515 185 14 4
30 11 35 15 8 6 98 39 125 45 3 1 12 4 20 8 39 15 429 157 445 161 6 2 17 6
25 9 29 12 155 59 165 61 6 2 21 8 35 14 18 7 28 7 36 -1 6 -7 32 -68 57 -137z
m-1883 -436 c0 -8 4 -22 10 -32 5 -9 16 -37 24 -62 8 -25 27 -76 41 -115 14
-38 28 -74 29 -80 2 -5 6 -17 9 -25 6 -14 50 -136 102 -280 12 -36 38 -108 58
-160 19 -52 73 -203 121 -335 48 -132 91 -248 96 -257 24 -43 14 -54 -87 -91
l-96 -36 -19 25 c-11 13 -37 33 -57 43 -26 14 -37 26 -38 43 -1 27 -31 234
-47 313 -3 18 -10 63 -22 150 -3 17 -6 41 -9 55 -2 14 -9 59 -15 100 -6 41
-13 89 -16 105 -3 17 -7 44 -9 60 -2 17 -6 41 -9 55 -3 14 -7 45 -10 70 -3 25
-7 54 -10 65 -2 11 -7 42 -10 68 -4 27 -9 56 -10 65 -2 10 -6 38 -10 63 -4 25
-9 59 -12 75 -3 16 -7 43 -9 59 -2 17 -7 43 -10 58 -4 19 -2 26 5 22 5 -3 10
-13 10 -21z m5490 -188 c69 -4 135 -8 146 -10 12 -2 45 -7 75 -11 192 -23 499
-108 679 -188 171 -76 408 -205 418 -229 2 -5 8 -8 13 -8 6 0 36 -19 67 -42
31 -24 61 -46 67 -50 104 -78 332 -294 424 -403 47 -56 166 -216 179 -242 l12
-22 -158 0 -159 0 -34 42 c-107 130 -232 258 -324 332 -28 22 -53 43 -56 48
-8 11 -211 155 -239 169 -14 7 -36 20 -50 29 -30 20 -160 86 -250 127 -62 29
-278 105 -330 116 -14 3 -65 15 -115 26 -49 11 -108 23 -130 26 -22 3 -51 7
-65 10 -149 24 -515 24 -650 -1 -14 -2 -52 -9 -85 -14 -326 -55 -650 -181
-915 -357 -24 -16 -50 -33 -59 -39 -8 -5 -20 -14 -27 -20 -6 -5 -25 -19 -40
-30 -101 -72 -323 -283 -404 -385 -68 -85 -52 -80 -225 -79 -85 1 -155 3 -155
6 0 7 84 126 129 183 111 139 222 256 335 354 33 28 70 60 82 71 32 29 207
153 286 202 108 68 371 199 381 191 2 -2 11 3 20 11 10 7 17 10 17 7 0 -4 12
0 28 8 35 20 283 97 357 111 207 41 297 53 470 61 72 4 132 8 133 10 2 1 9 1
15 -1 7 -2 68 -6 137 -9z m-3514 -452 c8 -20 14 -37 12 -39 -2 -1 -17 -10 -34
-18 l-31 -16 -16 35 c-10 19 -17 37 -17 39 0 4 52 30 68 34 2 1 10 -15 18 -35z
m3579 -117 c17 -3 50 -8 75 -12 37 -5 103 -18 213 -40 142 -30 429 -148 559
-232 24 -15 45 -27 48 -28 24 -1 256 -182 355 -276 l49 -48 -211 0 -211 0 -38
29 c-22 16 -44 30 -50 30 -6 0 -19 9 -29 20 -10 11 -21 17 -26 15 -4 -3 -10
-1 -13 4 -14 22 -253 133 -351 162 -138 43 -275 73 -390 85 -123 14 -373 8
-489 -11 -17 -3 -42 -7 -56 -9 -89 -14 -287 -73 -380 -113 -107 -46 -297 -146
-310 -164 -3 -4 -23 -16 -44 -28 -37 -19 -55 -20 -240 -20 l-201 0 63 60 c35
32 98 86 140 118 42 33 84 67 93 74 79 68 453 261 544 281 6 2 43 13 83 25
132 40 263 66 397 77 39 3 71 7 73 9 5 5 314 -3 347 -8z m-3535 -11 c0 -2 -13
-9 -30 -15 -16 -5 -30 -6 -30 -1 0 5 8 11 18 13 24 7 42 8 42 3z m830 -220
c115 -14 158 -25 143 -35 -12 -7 -126 -160 -148 -199 l-16 -27 -167 0 c-192 0
-265 -8 -407 -45 -22 -6 -47 -12 -56 -14 -8 -2 -64 -23 -124 -45 l-108 -41
-244 1 c-135 1 -241 5 -236 9 22 21 159 113 206 140 30 16 85 41 123 54 38 13
107 38 154 56 337 125 364 133 505 147 33 3 61 6 62 8 6 4 262 -3 313 -9z
m4955 -50 c192 -47 399 -140 565 -251 170 -116 182 -104 -100 -104 -230 -1
-249 1 -304 22 -50 19 -64 30 -97 79 -22 31 -39 60 -39 63 0 3 -5 11 -10 18
-34 41 -140 190 -140 198 0 4 6 6 13 4 6 -2 57 -15 112 -29z m-2305 -310 c61
-6 211 -34 218 -40 2 -3 -172 -4 -388 -4 -215 0 -390 2 -388 3 2 2 15 6 28 9
14 2 47 9 73 15 26 6 80 14 120 17 40 3 73 7 74 8 4 4 206 -2 263 -8z m-4907
-264 c5 -7 19 -12 31 -10 13 1 31 -5 41 -15 10 -10 29 -26 43 -35 24 -16 315
-17 4242 -22 l4215 -5 65 -31 c81 -39 142 -100 183 -184 29 -58 32 -73 32
-155 0 -80 -4 -97 -32 -157 -45 -95 -149 -188 -229 -203 -10 -2 -19 -4 -19 -6
0 -12 -8969 -16 -9031 -4 -21 5 -44 9 -51 11 -35 7 -110 54 -150 93 -95 96
-129 223 -98 366 28 128 175 255 315 271 98 11 123 29 176 128 6 11 49 33 109
55 l100 37 25 -61 c14 -33 29 -66 33 -73z"/>
<path d="M2113 6651 c-92 -32 -114 -45 -110 -70 7 -46 64 -184 79 -192 20 -11
179 43 199 67 10 12 8 28 -11 82 -30 87 -53 135 -65 138 -5 2 -47 -10 -92 -25z
m69 -106 c18 -41 12 -48 -45 -57 -13 -2 -22 7 -31 33 -13 37 -13 37 18 47 17
5 33 10 36 11 3 1 13 -15 22 -34z"/>
<path d="M1765 6524 c-159 -56 -162 -62 -104 -176 5 -10 9 -25 9 -34 0 -9 9
-29 20 -44 20 -29 38 -31 85 -9 11 4 46 18 77 29 32 12 60 25 62 29 7 11 -62
203 -76 213 -17 10 -25 9 -73 -8z m32 -91 c-4 -3 -2 -12 3 -19 25 -29 19 -51
-16 -62 -37 -11 -41 -8 -54 39 -8 26 -6 31 13 39 26 10 63 13 54 3z"/>
<path d="M1392 6389 c-8 -8 -84 -34 -92 -32 -3 1 -17 -7 -30 -17 l-25 -19 35
-101 c24 -69 41 -102 53 -106 26 -8 195 54 201 75 6 18 -45 173 -64 196 -12
15 -63 17 -78 4z m44 -154 c-4 -12 -63 -31 -71 -23 -2 1 -6 19 -10 39 -6 34
-5 36 27 46 31 9 34 8 46 -20 7 -16 11 -35 8 -42z"/>
<path d="M2280 6268 c-30 -11 -62 -22 -70 -25 -8 -4 -18 -7 -22 -7 -4 -1 -16
-9 -27 -18 -17 -14 -18 -22 -11 -49 22 -75 63 -171 77 -176 13 -5 104 24 171
54 18 9 32 23 32 33 0 33 -63 191 -79 199 -10 6 -36 2 -71 -11z m46 -120 c12
-36 12 -37 -18 -47 -17 -6 -35 -11 -39 -11 -7 0 -32 72 -26 75 30 15 54 23 61
21 5 -1 15 -18 22 -38z"/>
<path d="M1017 6250 c-26 -10 -51 -19 -55 -20 -4 -1 -17 -6 -30 -11 -13 -5
-27 -9 -32 -9 -5 0 -14 -8 -19 -18 -7 -12 -2 -37 16 -87 14 -39 28 -80 30 -93
9 -41 34 -44 120 -16 112 37 119 44 106 96 -20 78 -51 153 -70 165 -14 9 -28
8 -66 -7z m53 -152 c0 -3 -16 -12 -36 -18 -37 -13 -53 -4 -54 27 0 6 -3 18 -6
27 -4 11 4 17 28 24 30 8 34 6 50 -22 9 -17 17 -34 18 -38z"/>
<path d="M1858 6114 c-54 -20 -84 -37 -86 -49 -6 -26 59 -195 78 -205 21 -11
187 48 201 72 8 15 -35 153 -63 197 -15 25 -29 23 -130 -15z m91 -95 c15 -43
14 -46 -13 -53 -13 -3 -32 -9 -43 -13 -10 -3 -15 -3 -11 2 4 4 4 13 -1 19 -4
6 -11 21 -13 33 -5 17 0 24 21 32 42 15 48 13 60 -20z"/>
<path d="M1495 5984 c-38 -13 -78 -33 -88 -43 -19 -18 -18 -21 13 -107 34 -95
61 -130 88 -115 10 5 46 19 82 31 81 28 89 34 85 68 -3 35 -47 156 -64 176
-17 21 -32 19 -116 -10z m86 -145 c-3 -4 -20 -11 -37 -17 -31 -10 -32 -9 -43
30 -7 22 -11 41 -9 42 2 1 17 6 33 12 28 10 31 8 46 -25 9 -20 14 -39 10 -42z"/>
<path d="M1160 5859 c-30 -11 -62 -22 -70 -24 -8 -2 -15 -4 -15 -5 0 -1 -9 -3
-19 -5 -21 -4 -36 -22 -36 -46 0 -24 60 -183 73 -191 16 -10 54 -2 130 29 83
33 86 37 76 76 -18 69 -51 153 -67 169 -16 16 -20 16 -72 -3z m38 -116 c6 -20
10 -37 9 -37 -1 -1 -12 -7 -24 -13 -33 -19 -50 -16 -56 10 -2 12 -7 29 -11 38
-5 12 2 19 26 26 18 6 36 11 39 12 3 1 11 -16 17 -36z"/>
<path d="M2011 5726 c-46 -17 -88 -38 -94 -47 -14 -22 51 -199 78 -209 21 -8
170 42 194 65 11 11 8 28 -19 109 -31 92 -41 108 -65 112 -6 1 -48 -12 -94
-30z m82 -106 c9 -37 4 -45 -36 -54 -23 -5 -29 -3 -37 19 -15 41 -12 53 18 63
38 14 45 11 55 -28z"/>
<path d="M1631 5591 c-101 -37 -106 -47 -75 -130 14 -36 27 -74 29 -85 7 -28
25 -46 49 -45 36 1 169 53 180 71 8 13 3 38 -19 104 -43 128 -45 129 -164 85z
m84 -98 c8 -20 14 -37 13 -38 -2 -1 -18 -10 -36 -19 l-33 -17 -14 35 c-8 20
-15 38 -15 41 0 4 44 26 67 34 2 1 10 -15 18 -36z"/>
<path d="M1264 5457 c-33 -13 -72 -30 -85 -38 l-24 -16 29 -89 c16 -49 38 -98
48 -109 18 -20 19 -20 103 9 122 42 123 43 84 157 -18 52 -37 97 -43 101 -18
12 -47 8 -112 -15z m82 -142 c-2 -7 -17 -16 -32 -19 -32 -8 -54 12 -54 49 0
16 9 25 33 32 30 9 33 8 45 -20 7 -16 11 -35 8 -42z"/>
</g>
</svg>
